<svg width="1200" height="675" viewBox="0 0 1200 675" fill="none" xmlns="http://www.w3.org/2000/svg">
  <defs>
    <linearGradient id="bg" x1="0" y1="0" x2="1200" y2="675" gradientUnits="userSpaceOnUse">
      <stop offset="0" stop-color="#0A2236"/>
      <stop offset="1" stop-color="#134C5E"/>
    </linearGradient>
    <linearGradient id="panel" x1="0" y1="0" x2="1" y2="1">
      <stop offset="0" stop-color="#132E46"/>
      <stop offset="1" stop-color="#0E2437"/>
    </linearGradient>
    <filter id="shadow" x="-20%" y="-20%" width="140%" height="140%">
      <feDropShadow dx="0" dy="8" stdDeviation="12" flood-color="#001018" flood-opacity="0.45"/>
    </filter>
  </defs>

  <rect width="1200" height="675" fill="url(#bg)"/>

  <g filter="url(#shadow)">
    <rect x="38" y="38" width="1124" height="599" rx="14" fill="#0D1D2B"/>
  </g>

  <rect x="38" y="38" width="1124" height="44" rx="14" fill="#0F2A3F"/>
  <circle cx="66" cy="60" r="7" fill="#FF5F56"/>
  <circle cx="88" cy="60" r="7" fill="#FFBD2E"/>
  <circle cx="110" cy="60" r="7" fill="#27C93F"/>
  <rect x="140" y="49" width="280" height="22" rx="6" fill="#184566"/>

  <rect x="54" y="100" width="220" height="521" rx="10" fill="url(#panel)"/>
  <rect x="70" y="118" width="188" height="34" rx="6" fill="#1C4C70"/>
  <rect x="70" y="168" width="188" height="18" rx="5" fill="#173A56"/>
  <rect x="70" y="192" width="188" height="18" rx="5" fill="#173A56"/>
  <rect x="70" y="216" width="188" height="18" rx="5" fill="#173A56"/>
  <rect x="70" y="256" width="188" height="120" rx="8" fill="#112F46"/>
  <rect x="70" y="390" width="188" height="24" rx="6" fill="#1F567E"/>
  <rect x="70" y="422" width="188" height="24" rx="6" fill="#1F567E"/>
  <rect x="70" y="454" width="188" height="24" rx="6" fill="#1F567E"/>

  <rect x="292" y="100" width="854" height="521" rx="10" fill="#0F2537"/>

  <g opacity="0.35">
    <path d="M292 180H1146" stroke="#23597D"/>
    <path d="M292 260H1146" stroke="#23597D"/>
    <path d="M292 340H1146" stroke="#23597D"/>
    <path d="M292 420H1146" stroke="#23597D"/>
    <path d="M292 500H1146" stroke="#23597D"/>
    <path d="M372 100V621" stroke="#23597D"/>
    <path d="M452 100V621" stroke="#23597D"/>
    <path d="M532 100V621" stroke="#23597D"/>
    <path d="M612 100V621" stroke="#23597D"/>
    <path d="M692 100V621" stroke="#23597D"/>
    <path d="M772 100V621" stroke="#23597D"/>
    <path d="M852 100V621" stroke="#23597D"/>
    <path d="M932 100V621" stroke="#23597D"/>
    <path d="M1012 100V621" stroke="#23597D"/>
  </g>

  <rect x="482" y="220" width="260" height="150" rx="14" fill="#227BAA"/>
  <rect x="778" y="172" width="210" height="118" rx="14" fill="#ED8A39"/>
  <rect x="820" y="345" width="250" height="156" rx="14" fill="#3A9E6E"/>
  <circle cx="620" cy="470" r="72" fill="#A95FD3"/>

  <rect x="433" y="186" width="360" height="24" rx="8" fill="#0A1D2A" fill-opacity="0.55"/>
  <text x="448" y="203" fill="#D9EEFF" font-size="14" font-family="'Segoe UI', 'Noto Sans', sans-serif">INFINIPREZ - Infinite Canvas Presentation Editor</text>

  <rect x="54" y="574" width="1088" height="47" rx="10" fill="#102D43"/>
  <text x="74" y="603" fill="#A7D8F5" font-size="16" font-family="'Segoe UI', 'Noto Sans', sans-serif">Generated screenshot placeholder - replace with a real app capture anytime.</text>
</svg>
